<svg width="1584" height="396" viewBox="0 0 1584 396" fill="none" xmlns="http://www.w3.org/2000/svg">
<rect width="1584" height="396" fill="#F5F5F5"/>
<g id="Awesome banner" clip-path="url(#clip0_0_1)">
<rect width="1584" height="396" fill="url(#paint0_linear_0_1)"/>
<ellipse id="Ellipse 2" cx="323" cy="64" rx="285" ry="288" fill="url(#paint1_linear_0_1)" fill-opacity="0.1"/>
<g id="copyright">
<path d="M75.95 334.52L72.30 334.52L72.30 311.16L77.20 311.16L83.70 330.04Q83.60 329.02 83.50 327.62Q83.41 326.23 83.33 324.79Q83.25 323.35 83.25 322.23L83.25 311.16L86.90 311.16L86.90 334.52L82 334.52L75.57 315.64Q75.63 316.57 75.73 317.88Q75.82 319.19 75.89 320.57Q75.95 321.94 75.95 323.10L75.95 334.52M98.80 334.84Q96.46 334.84 94.67 333.96Q92.88 333.08 91.89 331.53Q90.90 329.98 90.90 327.93Q90.90 325.78 92.13 324.18Q93.36 322.58 95.34 322.17L95.34 322.10Q93.65 321.75 92.61 320.38Q91.57 319 91.57 317.11Q91.57 315.26 92.48 313.85Q93.39 312.44 95.02 311.64Q96.66 310.84 98.80 310.84Q100.94 310.84 102.59 311.64Q104.24 312.44 105.15 313.85Q106.06 315.26 106.06 317.11Q106.06 319 105.01 320.38Q103.95 321.75 102.26 322.10L102.26 322.17Q104.24 322.58 105.47 324.18Q106.70 325.78 106.70 327.93Q106.70 329.98 105.71 331.53Q104.72 333.08 102.93 333.96Q101.14 334.84 98.80 334.84M98.80 320.73Q100.30 320.73 101.23 319.82Q102.16 318.90 102.16 317.46Q102.16 315.99 101.23 315.08Q100.30 314.17 98.80 314.17Q97.30 314.17 96.37 315.08Q95.44 315.99 95.44 317.46Q95.44 318.90 96.37 319.82Q97.30 320.73 98.80 320.73M98.80 331.45Q100.56 331.45 101.68 330.42Q102.80 329.40 102.80 327.74Q102.80 326.04 101.68 325Q100.56 323.96 98.80 323.96Q97.04 323.96 95.92 325Q94.80 326.04 94.80 327.74Q94.80 329.40 95.92 330.42Q97.04 331.45 98.80 331.45M114.35 334.52L110.70 334.52L110.70 311.16L115.60 311.16L122.10 330.04Q122 329.02 121.90 327.62Q121.81 326.23 121.73 324.79Q121.65 323.35 121.65 322.23L121.65 311.16L125.30 311.16L125.30 334.52L120.40 334.52L113.97 315.64Q114.03 316.57 114.13 317.88Q114.22 319.19 114.29 320.57Q114.35 321.94 114.35 323.10" fill="white" fill-opacity="0.9"/>
<path d="M161.48 325.24L151.24 325.24L151.24 322.68L161.48 322.68" fill="white" fill-opacity="0.9"/>
<path d="M195.02 334.84Q191.82 334.84 189.96 333.05Q188.11 331.26 188.11 328.12L188.11 317.56Q188.11 314.42 189.96 312.63Q191.82 310.84 195.02 310.84Q198.15 310.84 200.01 312.65Q201.87 314.46 201.87 317.56L198.99 317.56Q198.99 315.58 197.95 314.50Q196.91 313.43 195.02 313.43Q193.13 313.43 192.06 314.50Q190.99 315.58 190.99 317.56L190.99 328.12Q190.99 330.10 192.06 331.18Q193.13 332.25 195.02 332.25Q196.91 332.25 197.95 331.18Q198.99 330.10 198.99 328.12L201.87 328.12Q201.87 331.22 200.01 333.03Q198.15 334.84 195.02 334.84" fill="white" fill-opacity="0.9"/>
<path d="M213.96 334.84Q210.83 334.84 209 333.02Q207.18 331.19 207.18 327.80L207.18 317.88Q207.18 314.49 209 312.66Q210.83 310.84 213.96 310.84Q217.10 310.84 218.92 312.66Q220.75 314.49 220.75 317.85L220.75 327.80Q220.75 331.19 218.92 333.02Q217.10 334.84 213.96 334.84M213.96 332.25Q215.85 332.25 216.86 331.18Q217.87 330.10 217.87 328.12L217.87 317.56Q217.87 315.58 216.86 314.50Q215.85 313.43 213.96 313.43Q212.11 313.43 211.08 314.50Q210.06 315.58 210.06 317.56L210.06 328.12Q210.06 330.10 211.08 331.18Q212.11 332.25 213.96 332.25" fill="white" fill-opacity="0.9"/>
<path d="M228.65 334.52L225.87 334.52L225.87 311.16L230.12 311.16L233.10 321.27L236.20 311.16L240.46 311.16L240.46 334.52L237.67 334.52L237.67 323.48Q237.67 321.91 237.72 319.88Q237.77 317.85 237.87 315.77Q237.96 313.69 238.09 312.02L234.31 324.09L231.82 324.09L228.20 312.31Q228.46 314.68 228.55 317.50Q228.65 320.31 228.65 323.48" fill="white" fill-opacity="0.9"/>
<path d="M247.85 334.52L245.07 334.52L245.07 311.16L249.32 311.16L252.30 321.27L255.40 311.16L259.66 311.16L259.66 334.52L256.87 334.52L256.87 323.48Q256.87 321.91 256.92 319.88Q256.97 317.85 257.07 315.77Q257.16 313.69 257.29 312.02L253.51 324.09L251.02 324.09L247.40 312.31Q247.66 314.68 247.75 317.50Q247.85 320.31 247.85 323.48" fill="white" fill-opacity="0.9"/>
<path d="M271.56 334.84Q268.30 334.84 266.57 333.03Q264.84 331.22 264.84 328.12L264.84 311.16L267.72 311.16L267.72 328.12Q267.72 330.04 268.67 331.16Q269.61 332.28 271.56 332.28Q273.48 332.28 274.44 331.16Q275.40 330.04 275.40 328.12L275.40 311.16L278.28 311.16L278.28 328.12Q278.28 331.26 276.57 333.05Q274.86 334.84 271.56 334.84" fill="white" fill-opacity="0.9"/>
<path d="M286.83 334.52L284.04 334.52L284.04 311.16L287.88 311.16L295.02 331.16Q294.95 330.36 294.87 329.19Q294.79 328.02 294.75 326.73Q294.70 325.43 294.70 324.28L294.70 311.16L297.48 311.16L297.48 334.52L293.64 334.52L286.54 314.52Q286.60 315.29 286.67 316.46Q286.73 317.62 286.78 318.92Q286.83 320.22 286.83 321.40" fill="white" fill-opacity="0.9"/>
<path d="M316.20 334.52L303.72 334.52L303.72 331.90L308.49 331.90L308.49 313.78L303.72 313.78L303.72 311.16L316.20 311.16L316.20 313.78L311.43 313.78L311.43 331.90L316.20 331.90" fill="white" fill-opacity="0.9"/>
<path d="M330.60 334.52L327.72 334.52L327.72 313.78L321.32 313.78L321.32 311.16L337 311.16L337 313.78L330.60 313.78" fill="white" fill-opacity="0.9"/>
<path d="M349.80 334.52L346.92 334.52L346.92 325.78L339.88 311.16L342.95 311.16L347.50 320.76Q347.88 321.56 348.11 322.12Q348.33 322.68 348.39 322.94Q348.46 322.68 348.70 322.12Q348.94 321.56 349.32 320.76L353.87 311.16L356.84 311.16L349.80 325.78" fill="white" fill-opacity="0.9"/>
<path d="M382.83 334.52L380.04 334.52L380.04 311.16L383.88 311.16L391.02 331.16Q390.95 330.36 390.87 329.19Q390.79 328.02 390.75 326.73Q390.70 325.43 390.70 324.28L390.70 311.16L393.48 311.16L393.48 334.52L389.64 334.52L382.54 314.52Q382.60 315.29 382.67 316.46Q382.73 317.62 382.78 318.92Q382.83 320.22 382.83 321.40" fill="white" fill-opacity="0.9"/>
<path d="M405.96 334.84Q402.83 334.84 401 333.02Q399.18 331.19 399.18 327.80L399.18 317.88Q399.18 314.49 401 312.66Q402.83 310.84 405.96 310.84Q409.10 310.84 410.92 312.66Q412.75 314.49 412.75 317.85L412.75 327.80Q412.75 331.19 410.92 333.02Q409.10 334.84 405.96 334.84M405.96 332.25Q407.85 332.25 408.86 331.18Q409.87 330.10 409.87 328.12L409.87 317.56Q409.87 315.58 408.86 314.50Q407.85 313.43 405.96 313.43Q404.11 313.43 403.08 314.50Q402.06 315.58 402.06 317.56L402.06 328.12Q402.06 330.10 403.08 331.18Q404.11 332.25 405.96 332.25" fill="white" fill-opacity="0.9"/>
<path d="M424.55 334.52L418.51 334.52L418.51 311.16L424.55 311.16Q426.83 311.16 428.47 312.02Q430.12 312.89 431.03 314.46Q431.95 316.02 431.95 318.17L431.95 327.48Q431.95 329.62 431.03 331.21Q430.12 332.79 428.47 333.66Q426.83 334.52 424.55 334.52M421.39 313.72L421.39 331.96L424.55 331.96Q426.67 331.96 427.87 330.78Q429.07 329.59 429.07 327.48L429.07 318.17Q429.07 316.09 427.87 314.90Q426.67 313.72 424.55 313.72" fill="white" fill-opacity="0.9"/>
<path d="M451.40 334.52L437.96 334.52L437.96 311.16L451.40 311.16L451.40 313.78L440.81 313.78L440.81 321.02L450.28 321.02L450.28 323.58L440.81 323.58L440.81 331.90L451.40 331.90" fill="white" fill-opacity="0.9"/>
<path d="M463.69 334.84Q460.30 334.84 458.28 333.05Q456.27 331.26 456.27 328.12L459.15 328.12Q459.15 330.07 460.39 331.18Q461.64 332.28 463.69 332.28Q465.67 332.28 466.86 331.13Q468.04 329.98 468.04 328.12Q468.04 326.71 467.29 325.67Q466.54 324.63 465.13 324.25L461.58 323.26Q459.37 322.62 458.11 320.97Q456.84 319.32 456.84 317.08Q456.84 315.22 457.67 313.82Q458.51 312.41 460.01 311.62Q461.51 310.84 463.47 310.84Q465.45 310.84 466.97 311.62Q468.49 312.41 469.35 313.80Q470.22 315.19 470.22 317.02L467.34 317.02Q467.34 315.42 466.25 314.41Q465.16 313.40 463.47 313.40Q461.77 313.40 460.71 314.41Q459.66 315.42 459.66 317.02Q459.66 318.30 460.35 319.21Q461.03 320.12 462.28 320.47L465.93 321.50Q468.27 322.14 469.56 323.91Q470.86 325.69 470.86 328.12Q470.86 331.19 468.91 333.02Q466.95 334.84 463.69 334.84" fill="white" fill-opacity="0.9"/>
</g>
<path d="M82.48 197.64L72.40 197.64L72.40 180.12L82.48 180.12L82.48 182.09L74.54 182.09L74.54 187.51L81.64 187.51L81.64 189.43L74.54 189.43L74.54 195.67L82.48 195.67" fill="white" fill-opacity="0.7"/>
<path d="M91.14 197.64L86.61 197.64L86.61 180.12L91.14 180.12Q92.85 180.12 94.08 180.77Q95.32 181.42 96 182.59Q96.69 183.77 96.69 185.38L96.69 192.36Q96.69 193.97 96 195.16Q95.32 196.34 94.08 196.99Q92.85 197.64 91.14 197.64M88.77 182.04L88.77 195.72L91.14 195.72Q92.73 195.72 93.63 194.83Q94.53 193.94 94.53 192.36L94.53 185.38Q94.53 183.82 93.63 182.93Q92.73 182.04 91.14 182.04" fill="white" fill-opacity="0.7"/>
<path d="M112.12 197.64L100.84 197.64L100.84 195.67L105.52 195.67L105.52 186.41L101.32 186.41L101.32 184.44L107.68 184.44L107.68 195.67L112.12 195.67L112.12 197.64M106.36 182.06Q105.57 182.06 105.11 181.66Q104.66 181.25 104.66 180.55Q104.66 179.83 105.11 179.41Q105.57 178.99 106.36 178.99Q107.15 178.99 107.61 179.41Q108.06 179.83 108.06 180.55Q108.06 181.25 107.61 181.66Q107.15 182.06 106.36 182.06" fill="white" fill-opacity="0.7"/>
<path d="M120.93 197.83L119.87 197.83Q117.66 197.83 116.45 196.84Q115.24 195.84 115.24 194.02L117.40 194.02Q117.40 194.93 118.05 195.44Q118.70 195.96 119.87 195.96L120.93 195.96Q122.13 195.96 122.79 195.43Q123.45 194.90 123.45 193.94Q123.45 192.24 121.89 192.02L118.24 191.50Q116.90 191.30 116.15 190.38Q115.41 189.46 115.41 187.94Q115.41 186.22 116.60 185.23Q117.78 184.25 119.87 184.25L120.93 184.25Q122.85 184.25 124.06 185.20Q125.27 186.14 125.37 187.68L123.18 187.68Q123.14 186.98 122.52 186.53Q121.91 186.07 120.93 186.07L119.87 186.07Q118.77 186.07 118.14 186.58Q117.52 187.08 117.52 187.94Q117.52 189.34 118.79 189.53L122.20 190.01Q125.56 190.49 125.56 193.94Q125.56 195.79 124.35 196.81Q123.14 197.83 120.93 197.83" fill="white" fill-opacity="0.7"/>
<path d="M139.96 197.64L136.12 197.64Q134.49 197.64 133.50 196.69Q132.52 195.74 132.52 194.16L132.52 186.41L128.73 186.41L128.73 184.44L132.52 184.44L132.52 180.72L134.68 180.72L134.68 184.44L140.08 184.44L140.08 186.41L134.68 186.41L134.68 194.16Q134.68 194.83 135.08 195.25Q135.47 195.67 136.12 195.67L139.96 195.67" fill="white" fill-opacity="0.7"/>
<path d="M146.85 197.64L144.69 197.64L144.69 184.44L146.85 184.44L146.85 186.96L146.90 186.96Q147.06 185.69 147.98 184.94Q148.89 184.20 150.42 184.20Q152.49 184.20 153.60 185.44Q154.72 186.67 154.72 188.95L154.72 190.08L152.56 190.08L152.56 188.95Q152.56 186.07 149.75 186.07Q148.34 186.07 147.59 186.89Q146.85 187.70 146.85 189.24" fill="white" fill-opacity="0.7"/>
<path d="M169.72 197.64L158.44 197.64L158.44 195.67L163.12 195.67L163.12 186.41L158.92 186.41L158.92 184.44L165.28 184.44L165.28 195.67L169.72 195.67L169.72 197.64M163.96 182.06Q163.17 182.06 162.71 181.66Q162.26 181.25 162.26 180.55Q162.26 179.83 162.71 179.41Q163.17 178.99 163.96 178.99Q164.75 178.99 165.21 179.41Q165.66 179.83 165.66 180.55Q165.66 181.25 165.21 181.66Q164.75 182.06 163.96 182.06" fill="white" fill-opacity="0.7"/>
<path d="M178.19 197.88Q175.79 197.88 174.35 196.54Q172.91 195.19 172.91 192.84L172.91 189.24Q172.91 186.89 174.35 185.54Q175.79 184.20 178.19 184.20Q180.47 184.20 181.88 185.42Q183.28 186.65 183.35 188.76L181.19 188.76Q181.12 187.49 180.33 186.80Q179.54 186.12 178.19 186.12Q176.78 186.12 175.92 186.92Q175.07 187.73 175.07 189.22L175.07 192.84Q175.07 194.33 175.92 195.14Q176.78 195.96 178.19 195.96Q179.54 195.96 180.33 195.26Q181.12 194.57 181.19 193.32L183.35 193.32Q183.28 195.43 181.88 196.66Q180.47 197.88 178.19 197.88" fill="white" fill-opacity="0.7"/>
<path d="M197.56 197.64L193.72 197.64Q192.09 197.64 191.10 196.69Q190.12 195.74 190.12 194.16L190.12 186.41L186.33 186.41L186.33 184.44L190.12 184.44L190.12 180.72L192.28 180.72L192.28 184.44L197.68 184.44L197.68 186.41L192.28 186.41L192.28 194.16Q192.28 194.83 192.68 195.25Q193.07 195.67 193.72 195.67L197.56 195.67" fill="white" fill-opacity="0.7"/>
<path d="M222.28 197.64L220.12 197.64L220.12 182.09L215.32 182.09L215.32 180.12L227.08 180.12L227.08 182.09L222.28 182.09" fill="white" fill-opacity="0.7"/>
<path d="M233.25 197.64L231.09 197.64L231.09 184.44L233.25 184.44L233.25 186.96L233.30 186.96Q233.46 185.69 234.38 184.94Q235.29 184.20 236.82 184.20Q238.89 184.20 240 185.44Q241.12 186.67 241.12 188.95L241.12 190.08L238.96 190.08L238.96 188.95Q238.96 186.07 236.15 186.07Q234.74 186.07 233.99 186.89Q233.25 187.70 233.25 189.24" fill="white" fill-opacity="0.7"/>
<path d="M256.12 197.64L244.84 197.64L244.84 195.67L249.52 195.67L249.52 186.41L245.32 186.41L245.32 184.44L251.68 184.44L251.68 195.67L256.12 195.67L256.12 197.64M250.36 182.06Q249.57 182.06 249.11 181.66Q248.66 181.25 248.66 180.55Q248.66 179.83 249.11 179.41Q249.57 178.99 250.36 178.99Q251.15 178.99 251.61 179.41Q252.06 179.83 252.06 180.55Q252.06 181.25 251.61 181.66Q251.15 182.06 250.36 182.06" fill="white" fill-opacity="0.7"/>
<path d="M261.57 201.96L259.41 201.96L259.41 184.44L261.57 184.44L261.57 186.96L261.59 186.96Q261.76 185.66 262.72 184.93Q263.68 184.20 265.17 184.20Q267.16 184.20 268.34 185.51Q269.51 186.82 269.51 189.10L269.51 192.96Q269.51 195.24 268.34 196.56Q267.16 197.88 265.17 197.88Q263.68 197.88 262.72 197.14Q261.76 196.39 261.59 195.12L261.52 195.12L261.57 198.12L261.57 201.96M264.45 196.01Q265.82 196.01 266.58 195.29Q267.35 194.57 267.35 192.96L267.35 189.12Q267.35 187.49 266.58 186.78Q265.82 186.07 264.45 186.07Q263.13 186.07 262.35 186.91Q261.57 187.75 261.57 189.24L261.57 192.84Q261.57 194.33 262.35 195.17Q263.13 196.01 264.45 196.01" fill="white" fill-opacity="0.7"/>
<path d="M278.78 197.88Q276.50 197.88 275.13 196.52Q273.76 195.17 273.76 192.84L273.76 184.44L275.92 184.44L275.92 192.84Q275.92 194.28 276.69 195.13Q277.46 195.98 278.78 195.98Q280.12 195.98 280.90 195.13Q281.68 194.28 281.68 192.84L281.68 184.44L283.84 184.44L283.84 192.84Q283.84 195.17 282.45 196.52Q281.06 197.88 278.78 197.88" fill="white" fill-opacity="0.7"/>
<path d="M290.85 197.64L288.69 197.64L288.69 184.44L290.85 184.44L290.85 186.96L290.90 186.96Q291.06 185.69 291.98 184.94Q292.89 184.20 294.42 184.20Q296.49 184.20 297.60 185.44Q298.72 186.67 298.72 188.95L298.72 190.08L296.56 190.08L296.56 188.95Q296.56 186.07 293.75 186.07Q292.34 186.07 291.59 186.89Q290.85 187.70 290.85 189.24" fill="white" fill-opacity="0.7"/>
<path d="M306.45 197.88Q304.41 197.88 303.21 196.74Q302.01 195.60 302.01 193.75Q302.01 192.53 302.56 191.62Q303.11 190.70 304.10 190.19Q305.08 189.67 306.35 189.67L310.43 189.67L310.43 188.64Q310.43 186.07 307.62 186.07Q306.38 186.07 305.61 186.53Q304.84 186.98 304.79 187.80L302.63 187.80Q302.75 186.24 304.08 185.22Q305.42 184.20 307.62 184.20Q310.02 184.20 311.31 185.35Q312.59 186.50 312.59 188.57L312.59 197.64L310.46 197.64L310.46 195.24L310.41 195.24Q310.22 196.46 309.18 197.17Q308.15 197.88 306.45 197.88M306.98 196.06Q308.56 196.06 309.50 195.29Q310.43 194.52 310.43 193.20L310.43 191.35L306.59 191.35Q305.54 191.35 304.88 191.99Q304.22 192.62 304.22 193.68Q304.22 194.78 304.95 195.42Q305.68 196.06 306.98 196.06" fill="white" fill-opacity="0.7"/>
<path d="M333.57 201.96L331.41 201.96L331.41 184.44L333.57 184.44L333.57 186.96L333.59 186.96Q333.76 185.66 334.72 184.93Q335.68 184.20 337.17 184.20Q339.16 184.20 340.34 185.51Q341.51 186.82 341.51 189.10L341.51 192.96Q341.51 195.24 340.34 196.56Q339.16 197.88 337.17 197.88Q335.68 197.88 334.72 197.14Q333.76 196.39 333.59 195.12L333.52 195.12L333.57 198.12L333.57 201.96M336.45 196.01Q337.82 196.01 338.58 195.29Q339.35 194.57 339.35 192.96L339.35 189.12Q339.35 187.49 338.58 186.78Q337.82 186.07 336.45 186.07Q335.13 186.07 334.35 186.91Q333.57 187.75 333.57 189.24L333.57 192.84Q333.57 194.33 334.35 195.17Q335.13 196.01 336.45 196.01" fill="white" fill-opacity="0.7"/>
<path d="M350.80 197.83Q348.42 197.83 347.02 196.44Q345.62 195.05 345.62 192.55L345.62 189.53Q345.62 187.01 347.01 185.63Q348.40 184.25 350.80 184.25Q353.20 184.25 354.59 185.63Q355.98 187.01 355.98 189.53L355.98 192.55Q355.98 195.05 354.58 196.44Q353.18 197.83 350.80 197.83M350.80 195.91Q352.22 195.91 353.02 195.12Q353.82 194.33 353.82 192.79L353.82 189.29Q353.82 187.75 353.02 186.96Q352.22 186.17 350.80 186.17Q349.41 186.17 348.59 186.96Q347.78 187.75 347.78 189.29L347.78 192.79Q347.78 194.33 348.59 195.12Q349.41 195.91 350.80 195.91" fill="white" fill-opacity="0.7"/>
<path d="M362.85 197.64L360.69 197.64L360.69 184.44L362.85 184.44L362.85 186.96L362.90 186.96Q363.06 185.69 363.98 184.94Q364.89 184.20 366.42 184.20Q368.49 184.20 369.60 185.44Q370.72 186.67 370.72 188.95L370.72 190.08L368.56 190.08L368.56 188.95Q368.56 186.07 365.75 186.07Q364.34 186.07 363.59 186.89Q362.85 187.70 362.85 189.24" fill="white" fill-opacity="0.7"/>
<path d="M384.76 197.64L380.92 197.64Q379.29 197.64 378.30 196.69Q377.32 195.74 377.32 194.16L377.32 186.41L373.53 186.41L373.53 184.44L377.32 184.44L377.32 180.72L379.48 180.72L379.48 184.44L384.88 184.44L384.88 186.41L379.48 186.41L379.48 194.16Q379.48 194.83 379.88 195.25Q380.27 195.67 380.92 195.67L384.76 195.67" fill="white" fill-opacity="0.7"/>
<path d="M392.85 197.88Q390.81 197.88 389.61 196.74Q388.41 195.60 388.41 193.75Q388.41 192.53 388.96 191.62Q389.51 190.70 390.50 190.19Q391.48 189.67 392.75 189.67L396.83 189.67L396.83 188.64Q396.83 186.07 394.02 186.07Q392.78 186.07 392.01 186.53Q391.24 186.98 391.19 187.80L389.03 187.80Q389.15 186.24 390.48 185.22Q391.82 184.20 394.02 184.20Q396.42 184.20 397.71 185.35Q398.99 186.50 398.99 188.57L398.99 197.64L396.86 197.64L396.86 195.24L396.81 195.24Q396.62 196.46 395.58 197.17Q394.55 197.88 392.85 197.88M393.38 196.06Q394.96 196.06 395.90 195.29Q396.83 194.52 396.83 193.20L396.83 191.35L392.99 191.35Q391.94 191.35 391.28 191.99Q390.62 192.62 390.62 193.68Q390.62 194.78 391.35 195.42Q392.08 196.06 393.38 196.06" fill="white" fill-opacity="0.7"/>
<path d="M414.40 197.64L410.32 197.64Q408.57 197.64 407.52 196.62Q406.48 195.60 406.48 193.92L406.48 182.09L401.92 182.09L401.92 180.12L408.64 180.12L408.64 193.92Q408.64 194.74 409.10 195.20Q409.55 195.67 410.32 195.67L414.40 195.67" fill="white" fill-opacity="0.7"/>
<path d="M443.32 197.64L432.04 197.64L432.04 195.67L436.72 195.67L436.72 186.41L432.52 186.41L432.52 184.44L438.88 184.44L438.88 195.67L443.32 195.67L443.32 197.64M437.56 182.06Q436.77 182.06 436.31 181.66Q435.86 181.25 435.86 180.55Q435.86 179.83 436.31 179.41Q436.77 178.99 437.56 178.99Q438.35 178.99 438.81 179.41Q439.26 179.83 439.26 180.55Q439.26 181.25 438.81 181.66Q438.35 182.06 437.56 182.06" fill="white" fill-opacity="0.7"/>
<path d="M452.13 197.83L451.07 197.83Q448.86 197.83 447.65 196.84Q446.44 195.84 446.44 194.02L448.60 194.02Q448.60 194.93 449.25 195.44Q449.90 195.96 451.07 195.96L452.13 195.96Q453.33 195.96 453.99 195.43Q454.65 194.90 454.65 193.94Q454.65 192.24 453.09 192.02L449.44 191.50Q448.10 191.30 447.35 190.38Q446.61 189.46 446.61 187.94Q446.61 186.22 447.80 185.23Q448.98 184.25 451.07 184.25L452.13 184.25Q454.05 184.25 455.26 185.20Q456.47 186.14 456.57 187.68L454.38 187.68Q454.34 186.98 453.72 186.53Q453.11 186.07 452.13 186.07L451.07 186.07Q449.97 186.07 449.34 186.58Q448.72 187.08 448.72 187.94Q448.72 189.34 449.99 189.53L453.40 190.01Q456.76 190.49 456.76 193.94Q456.76 195.79 455.55 196.81Q454.34 197.83 452.13 197.83" fill="white" fill-opacity="0.7"/>
<path d="M466.53 197.83L465.47 197.83Q463.26 197.83 462.05 196.84Q460.84 195.84 460.84 194.02L463 194.02Q463 194.93 463.65 195.44Q464.30 195.96 465.47 195.96L466.53 195.96Q467.73 195.96 468.39 195.43Q469.05 194.90 469.05 193.94Q469.05 192.24 467.49 192.02L463.84 191.50Q462.50 191.30 461.75 190.38Q461.01 189.46 461.01 187.94Q461.01 186.22 462.20 185.23Q463.38 184.25 465.47 184.25L466.53 184.25Q468.45 184.25 469.66 185.20Q470.87 186.14 470.97 187.68L468.78 187.68Q468.74 186.98 468.12 186.53Q467.51 186.07 466.53 186.07L465.47 186.07Q464.37 186.07 463.74 186.58Q463.12 187.08 463.12 187.94Q463.12 189.34 464.39 189.53L467.80 190.01Q471.16 190.49 471.16 193.94Q471.16 195.79 469.95 196.81Q468.74 197.83 466.53 197.83" fill="white" fill-opacity="0.7"/>
<path d="M480.38 197.88Q478.10 197.88 476.73 196.52Q475.36 195.17 475.36 192.84L475.36 184.44L477.52 184.44L477.52 192.84Q477.52 194.28 478.29 195.13Q479.06 195.98 480.38 195.98Q481.72 195.98 482.50 195.13Q483.28 194.28 483.28 192.84L483.28 184.44L485.44 184.44L485.44 192.84Q485.44 195.17 484.05 196.52Q482.66 197.88 480.38 197.88" fill="white" fill-opacity="0.7"/>
<path d="M494.80 197.88Q492.47 197.88 491.04 196.48Q489.62 195.07 489.62 192.60L489.62 189.48Q489.62 187.01 491.04 185.60Q492.47 184.20 494.80 184.20Q496.36 184.20 497.52 184.82Q498.69 185.45 499.34 186.58Q499.98 187.70 499.98 189.24L499.98 191.59L491.73 191.59L491.73 192.84Q491.73 194.30 492.57 195.16Q493.41 196.01 494.80 196.01Q496 196.01 496.78 195.54Q497.56 195.07 497.73 194.28L499.89 194.28Q499.67 195.94 498.28 196.91Q496.89 197.88 494.80 197.88M491.73 189.24L491.73 189.91L497.87 189.91L497.87 189.24Q497.87 187.68 497.07 186.83Q496.26 185.98 494.80 185.98Q493.34 185.98 492.53 186.83Q491.73 187.68 491.73 189.24" fill="white" fill-opacity="0.7"/>
<path d="M509.73 197.83L508.67 197.83Q506.46 197.83 505.25 196.84Q504.04 195.84 504.04 194.02L506.20 194.02Q506.20 194.93 506.85 195.44Q507.50 195.96 508.67 195.96L509.73 195.96Q510.93 195.96 511.59 195.43Q512.25 194.90 512.25 193.94Q512.25 192.24 510.69 192.02L507.04 191.50Q505.70 191.30 504.95 190.38Q504.21 189.46 504.21 187.94Q504.21 186.22 505.40 185.23Q506.58 184.25 508.67 184.25L509.73 184.25Q511.65 184.25 512.86 185.20Q514.07 186.14 514.17 187.68L511.98 187.68Q511.94 186.98 511.32 186.53Q510.71 186.07 509.73 186.07L508.67 186.07Q507.57 186.07 506.94 186.58Q506.32 187.08 506.32 187.94Q506.32 189.34 507.59 189.53L511 190.01Q514.36 190.49 514.36 193.94Q514.36 195.79 513.15 196.81Q511.94 197.83 509.73 197.83" fill="white" fill-opacity="0.7"/>
<path d="M539.42 197.64L536.58 197.64L532.10 184.44L534.42 184.44L537.30 193.32Q537.57 194.11 537.76 194.84Q537.95 195.58 538.05 195.98Q538.17 195.58 538.34 194.84Q538.50 194.11 538.74 193.32L541.62 184.44L543.90 184.44" fill="white" fill-opacity="0.7"/>
<path d="M552.40 197.88Q550.07 197.88 548.64 196.48Q547.22 195.07 547.22 192.60L547.22 189.48Q547.22 187.01 548.64 185.60Q550.07 184.20 552.40 184.20Q553.96 184.20 555.12 184.82Q556.29 185.45 556.94 186.58Q557.58 187.70 557.58 189.24L557.58 191.59L549.33 191.59L549.33 192.84Q549.33 194.30 550.17 195.16Q551.01 196.01 552.40 196.01Q553.60 196.01 554.38 195.54Q555.16 195.07 555.33 194.28L557.49 194.28Q557.27 195.94 555.88 196.91Q554.49 197.88 552.40 197.88M549.33 189.24L549.33 189.91L555.47 189.91L555.47 189.24Q555.47 187.68 554.67 186.83Q553.86 185.98 552.40 185.98Q550.94 185.98 550.13 186.83Q549.33 187.68 549.33 189.24" fill="white" fill-opacity="0.7"/>
<path d="M564.45 197.64L562.29 197.64L562.29 184.44L564.45 184.44L564.45 186.96L564.50 186.96Q564.66 185.69 565.58 184.94Q566.49 184.20 568.02 184.20Q570.09 184.20 571.20 185.44Q572.32 186.67 572.32 188.95L572.32 190.08L570.16 190.08L570.16 188.95Q570.16 186.07 567.35 186.07Q565.94 186.07 565.19 186.89Q564.45 187.70 564.45 189.24" fill="white" fill-opacity="0.7"/>
<path d="M587.32 197.64L576.04 197.64L576.04 195.67L580.72 195.67L580.72 186.41L576.52 186.41L576.52 184.44L582.88 184.44L582.88 195.67L587.32 195.67L587.32 197.64M581.56 182.06Q580.77 182.06 580.31 181.66Q579.86 181.25 579.86 180.55Q579.86 179.83 580.31 179.41Q580.77 178.99 581.56 178.99Q582.35 178.99 582.81 179.41Q583.26 179.83 583.26 180.55Q583.26 181.25 582.81 181.66Q582.35 182.06 581.56 182.06" fill="white" fill-opacity="0.7"/>
<path d="M595.72 197.64L593.56 197.64L593.56 188.21L589.72 188.21L589.72 186.24L593.56 186.24L593.56 183.48Q593.56 181.92 594.54 181.02Q595.53 180.12 597.26 180.12L601.12 180.12L601.12 182.09L597.26 182.09Q595.72 182.09 595.72 183.48L595.72 186.24L601.12 186.24L601.12 188.21L595.72 188.21" fill="white" fill-opacity="0.7"/>
<path d="M616.12 197.64L604.84 197.64L604.84 195.67L609.52 195.67L609.52 186.41L605.32 186.41L605.32 184.44L611.68 184.44L611.68 195.67L616.12 195.67L616.12 197.64M610.36 182.06Q609.57 182.06 609.11 181.66Q608.66 181.25 608.66 180.55Q608.66 179.83 609.11 179.41Q609.57 178.99 610.36 178.99Q611.15 178.99 611.61 179.41Q612.06 179.83 612.06 180.55Q612.06 181.25 611.61 181.66Q611.15 182.06 610.36 182.06" fill="white" fill-opacity="0.7"/>
<path d="M623.25 197.88Q621.21 197.88 620.01 196.74Q618.81 195.60 618.81 193.75Q618.81 192.53 619.36 191.62Q619.91 190.70 620.90 190.19Q621.88 189.67 623.15 189.67L627.23 189.67L627.23 188.64Q627.23 186.07 624.42 186.07Q623.18 186.07 622.41 186.53Q621.64 186.98 621.59 187.80L619.43 187.80Q619.55 186.24 620.88 185.22Q622.22 184.20 624.42 184.20Q626.82 184.20 628.11 185.35Q629.39 186.50 629.39 188.57L629.39 197.64L627.26 197.64L627.26 195.24L627.21 195.24Q627.02 196.46 625.98 197.17Q624.95 197.88 623.25 197.88M623.78 196.06Q625.36 196.06 626.30 195.29Q627.23 194.52 627.23 193.20L627.23 191.35L623.39 191.35Q622.34 191.35 621.68 191.99Q621.02 192.62 621.02 193.68Q621.02 194.78 621.75 195.42Q622.48 196.06 623.78 196.06" fill="white" fill-opacity="0.7"/>
<path d="M639.57 197.88Q638.08 197.88 637.12 197.15Q636.16 196.42 635.99 195.12L635.97 195.12L635.97 197.64L633.81 197.64L633.81 180.12L635.97 180.12L635.97 183.96L635.92 186.96L635.94 186.96Q636.14 185.69 637.11 184.94Q638.08 184.20 639.57 184.20Q641.56 184.20 642.74 185.52Q643.91 186.84 643.91 189.12L643.91 192.98Q643.91 195.24 642.74 196.56Q641.56 197.88 639.57 197.88M638.85 196.01Q640.22 196.01 640.98 195.29Q641.75 194.57 641.75 192.96L641.75 189.12Q641.75 187.49 640.98 186.78Q640.22 186.07 638.85 186.07Q637.53 186.07 636.75 186.91Q635.97 187.75 635.97 189.24L635.97 192.84Q635.97 194.33 636.75 195.17Q637.53 196.01 638.85 196.01" fill="white" fill-opacity="0.7"/>
<path d="M659.20 197.64L655.12 197.64Q653.37 197.64 652.32 196.62Q651.28 195.60 651.28 193.92L651.28 182.09L646.72 182.09L646.72 180.12L653.44 180.12L653.44 193.92Q653.44 194.74 653.90 195.20Q654.35 195.67 655.12 195.67L659.20 195.67" fill="white" fill-opacity="0.7"/>
<path d="M667.60 197.88Q665.27 197.88 663.84 196.48Q662.42 195.07 662.42 192.60L662.42 189.48Q662.42 187.01 663.84 185.60Q665.27 184.20 667.60 184.20Q669.16 184.20 670.32 184.82Q671.49 185.45 672.14 186.58Q672.78 187.70 672.78 189.24L672.78 191.59L664.53 191.59L664.53 192.84Q664.53 194.30 665.37 195.16Q666.21 196.01 667.60 196.01Q668.80 196.01 669.58 195.54Q670.36 195.07 670.53 194.28L672.69 194.28Q672.47 195.94 671.08 196.91Q669.69 197.88 667.60 197.88M664.53 189.24L664.53 189.91L670.67 189.91L670.67 189.24Q670.67 187.68 669.87 186.83Q669.06 185.98 667.60 185.98Q666.14 185.98 665.33 186.83Q664.53 187.68 664.53 189.24" fill="white" fill-opacity="0.7"/>
<path d="M695.63 197.88Q693.66 197.88 692.48 196.56Q691.29 195.24 691.29 192.98L691.29 189.12Q691.29 186.84 692.46 185.52Q693.64 184.20 695.63 184.20Q697.12 184.20 698.09 184.94Q699.06 185.69 699.26 186.96L699.28 186.96L699.23 183.96L699.23 180.12L701.39 180.12L701.39 197.64L699.23 197.64L699.23 195.12L699.21 195.12Q699.04 196.42 698.08 197.15Q697.12 197.88 695.63 197.88M696.35 196.01Q697.70 196.01 698.46 195.17Q699.23 194.33 699.23 192.84L699.23 189.24Q699.23 187.75 698.46 186.91Q697.70 186.07 696.35 186.07Q694.98 186.07 694.22 186.78Q693.45 187.49 693.45 189.12L693.45 192.96Q693.45 194.57 694.22 195.29Q694.98 196.01 696.35 196.01" fill="white" fill-opacity="0.7"/>
<path d="M710.80 197.83Q708.42 197.83 707.02 196.44Q705.62 195.05 705.62 192.55L705.62 189.53Q705.62 187.01 707.01 185.63Q708.40 184.25 710.80 184.25Q713.20 184.25 714.59 185.63Q715.98 187.01 715.98 189.53L715.98 192.55Q715.98 195.05 714.58 196.44Q713.18 197.83 710.80 197.83M710.80 195.91Q712.22 195.91 713.02 195.12Q713.82 194.33 713.82 192.79L713.82 189.29Q713.82 187.75 713.02 186.96Q712.22 186.17 710.80 186.17Q709.41 186.17 708.59 186.96Q707.78 187.75 707.78 189.29L707.78 192.79Q707.78 194.33 708.59 195.12Q709.41 195.91 710.80 195.91" fill="white" fill-opacity="0.7"/>
<path d="M725.39 197.88Q722.99 197.88 721.55 196.54Q720.11 195.19 720.11 192.84L720.11 189.24Q720.11 186.89 721.55 185.54Q722.99 184.20 725.39 184.20Q727.67 184.20 729.08 185.42Q730.48 186.65 730.55 188.76L728.39 188.76Q728.32 187.49 727.53 186.80Q726.74 186.12 725.39 186.12Q723.98 186.12 723.12 186.92Q722.27 187.73 722.27 189.22L722.27 192.84Q722.27 194.33 723.12 195.14Q723.98 195.96 725.39 195.96Q726.74 195.96 727.53 195.26Q728.32 194.57 728.39 193.32L730.55 193.32Q730.48 195.43 729.08 196.66Q727.67 197.88 725.39 197.88" fill="white" fill-opacity="0.7"/>
<path d="M739.58 197.88Q737.30 197.88 735.93 196.52Q734.56 195.17 734.56 192.84L734.56 184.44L736.72 184.44L736.72 192.84Q736.72 194.28 737.49 195.13Q738.26 195.98 739.58 195.98Q740.92 195.98 741.70 195.13Q742.48 194.28 742.48 192.84L742.48 184.44L744.64 184.44L744.64 192.84Q744.64 195.17 743.25 196.52Q741.86 197.88 739.58 197.88" fill="white" fill-opacity="0.7"/>
<path d="M750.26 197.64L748.24 197.64L748.24 184.44L750.11 184.44L750.11 186.19L750.16 186.19Q750.28 185.30 750.87 184.75Q751.46 184.20 752.37 184.20Q753.23 184.20 753.83 184.70Q754.43 185.21 754.70 186.07L754.72 186.07Q754.89 185.21 755.48 184.70Q756.06 184.20 756.98 184.20Q758.25 184.20 759 185.15Q759.76 186.10 759.76 187.61L759.76 197.64L757.74 197.64L757.74 187.58Q757.74 186.79 757.36 186.32Q756.98 185.86 756.30 185.86Q755.66 185.86 755.27 186.31Q754.89 186.77 754.89 187.56L754.89 197.64L753.11 197.64L753.11 187.58Q753.11 186.79 752.73 186.32Q752.34 185.86 751.70 185.86Q751.02 185.86 750.64 186.31Q750.26 186.77 750.26 187.56" fill="white" fill-opacity="0.7"/>
<path d="M768.40 197.88Q766.07 197.88 764.64 196.48Q763.22 195.07 763.22 192.60L763.22 189.48Q763.22 187.01 764.64 185.60Q766.07 184.20 768.40 184.20Q769.96 184.20 771.12 184.82Q772.29 185.45 772.94 186.58Q773.58 187.70 773.58 189.24L773.58 191.59L765.33 191.59L765.33 192.84Q765.33 194.30 766.17 195.16Q767.01 196.01 768.40 196.01Q769.60 196.01 770.38 195.54Q771.16 195.07 771.33 194.28L773.49 194.28Q773.27 195.94 771.88 196.91Q770.49 197.88 768.40 197.88M765.33 189.24L765.33 189.91L771.47 189.91L771.47 189.24Q771.47 187.68 770.67 186.83Q769.86 185.98 768.40 185.98Q766.94 185.98 766.13 186.83Q765.33 187.68 765.33 189.24" fill="white" fill-opacity="0.7"/>
<path d="M779.97 197.64L777.81 197.64L777.81 184.44L779.97 184.44L779.97 186.96L779.99 186.96Q780.16 185.64 781.07 184.92Q781.98 184.20 783.50 184.20Q785.49 184.20 786.66 185.42Q787.84 186.65 787.84 188.76L787.84 197.64L785.68 197.64L785.68 189.14Q785.68 187.63 784.92 186.83Q784.17 186.02 782.87 186.02Q781.53 186.02 780.75 186.86Q779.97 187.70 779.97 189.24" fill="white" fill-opacity="0.7"/>
<path d="M802.36 197.64L798.52 197.64Q796.89 197.64 795.90 196.69Q794.92 195.74 794.92 194.16L794.92 186.41L791.13 186.41L791.13 184.44L794.92 184.44L794.92 180.72L797.08 180.72L797.08 184.44L802.48 184.44L802.48 186.41L797.08 186.41L797.08 194.16Q797.08 194.83 797.48 195.25Q797.87 195.67 798.52 195.67L802.36 195.67" fill="white" fill-opacity="0.7"/>
<path d="M812.13 197.83L811.07 197.83Q808.86 197.83 807.65 196.84Q806.44 195.84 806.44 194.02L808.60 194.02Q808.60 194.93 809.25 195.44Q809.90 195.96 811.07 195.96L812.13 195.96Q813.33 195.96 813.99 195.43Q814.65 194.90 814.65 193.94Q814.65 192.24 813.09 192.02L809.44 191.50Q808.10 191.30 807.35 190.38Q806.61 189.46 806.61 187.94Q806.61 186.22 807.80 185.23Q808.98 184.25 811.07 184.25L812.13 184.25Q814.05 184.25 815.26 185.20Q816.47 186.14 816.57 187.68L814.38 187.68Q814.34 186.98 813.72 186.53Q813.11 186.07 812.13 186.07L811.07 186.07Q809.97 186.07 809.34 186.58Q808.72 187.08 808.72 187.94Q808.72 189.34 809.99 189.53L813.40 190.01Q816.76 190.49 816.76 193.94Q816.76 195.79 815.55 196.81Q814.34 197.83 812.13 197.83" fill="white" fill-opacity="0.7"/>
<path d="M846.40 197.64L842.32 197.64Q840.57 197.64 839.52 196.62Q838.48 195.60 838.48 193.92L838.48 182.09L833.92 182.09L833.92 180.12L840.64 180.12L840.64 193.92Q840.64 194.74 841.10 195.20Q841.55 195.67 842.32 195.67L846.40 195.67" fill="white" fill-opacity="0.7"/>
<path d="M860.92 197.64L849.64 197.64L849.64 195.67L854.32 195.67L854.32 186.41L850.12 186.41L850.12 184.44L856.48 184.44L856.48 195.67L860.92 195.67L860.92 197.64M855.16 182.06Q854.37 182.06 853.91 181.66Q853.46 181.25 853.46 180.55Q853.46 179.83 853.91 179.41Q854.37 178.99 855.16 178.99Q855.95 178.99 856.41 179.41Q856.86 179.83 856.86 180.55Q856.86 181.25 856.41 181.66Q855.95 182.06 855.16 182.06" fill="white" fill-opacity="0.7"/>
<path d="M866.49 197.64L864.33 197.64L864.33 180.12L866.49 180.12L866.49 189.89L869.01 189.89L872.70 184.44L875.18 184.44L870.93 190.73L875.42 197.64L872.90 197.64L869.06 191.76L866.49 191.76" fill="white" fill-opacity="0.7"/>
<path d="M883.60 197.88Q881.27 197.88 879.84 196.48Q878.42 195.07 878.42 192.60L878.42 189.48Q878.42 187.01 879.84 185.60Q881.27 184.20 883.60 184.20Q885.16 184.20 886.32 184.82Q887.49 185.45 888.14 186.58Q888.78 187.70 888.78 189.24L888.78 191.59L880.53 191.59L880.53 192.84Q880.53 194.30 881.37 195.16Q882.21 196.01 883.60 196.01Q884.80 196.01 885.58 195.54Q886.36 195.07 886.53 194.28L888.69 194.28Q888.47 195.94 887.08 196.91Q885.69 197.88 883.60 197.88M880.53 189.24L880.53 189.91L886.67 189.91L886.67 189.24Q886.67 187.68 885.87 186.83Q885.06 185.98 883.60 185.98Q882.14 185.98 881.33 186.83Q880.53 187.68 880.53 189.24" fill="white" fill-opacity="0.7"/>
<path d="M917.08 197.64L907.72 197.64L907.72 195.67L911.30 195.67L911.30 182.09L907.72 182.09L907.72 180.12L917.08 180.12L917.08 182.09L913.50 182.09L913.50 195.67L917.08 195.67" fill="white" fill-opacity="0.7"/>
<path d="M923.97 197.64L921.81 197.64L921.81 184.44L923.97 184.44L923.97 186.96L923.99 186.96Q924.16 185.64 925.07 184.92Q925.98 184.20 927.50 184.20Q929.49 184.20 930.66 185.42Q931.84 186.65 931.84 188.76L931.84 197.64L929.68 197.64L929.68 189.14Q929.68 187.63 928.92 186.83Q928.17 186.02 926.87 186.02Q925.53 186.02 924.75 186.86Q923.97 187.70 923.97 189.24" fill="white" fill-opacity="0.7"/>
<path d="M941.39 197.88Q938.99 197.88 937.55 196.54Q936.11 195.19 936.11 192.84L936.11 189.24Q936.11 186.89 937.55 185.54Q938.99 184.20 941.39 184.20Q943.67 184.20 945.08 185.42Q946.48 186.65 946.55 188.76L944.39 188.76Q944.32 187.49 943.53 186.80Q942.74 186.12 941.39 186.12Q939.98 186.12 939.12 186.92Q938.27 187.73 938.27 189.22L938.27 192.84Q938.27 194.33 939.12 195.14Q939.98 195.96 941.39 195.96Q942.74 195.96 943.53 195.26Q944.32 194.57 944.39 193.32L946.55 193.32Q946.48 195.43 945.08 196.66Q943.67 197.88 941.39 197.88" fill="white" fill-opacity="0.7"/>
<path d="M955.60 197.83Q953.22 197.83 951.82 196.44Q950.42 195.05 950.42 192.55L950.42 189.53Q950.42 187.01 951.81 185.63Q953.20 184.25 955.60 184.25Q958 184.25 959.39 185.63Q960.78 187.01 960.78 189.53L960.78 192.55Q960.78 195.05 959.38 196.44Q957.98 197.83 955.60 197.83M955.60 195.91Q957.02 195.91 957.82 195.12Q958.62 194.33 958.62 192.79L958.62 189.29Q958.62 187.75 957.82 186.96Q957.02 186.17 955.60 186.17Q954.21 186.17 953.39 186.96Q952.58 187.75 952.58 189.29L952.58 192.79Q952.58 194.33 953.39 195.12Q954.21 195.91 955.60 195.91" fill="white" fill-opacity="0.7"/>
<path d="M966.26 197.64L964.24 197.64L964.24 184.44L966.11 184.44L966.11 186.19L966.16 186.19Q966.28 185.30 966.87 184.75Q967.46 184.20 968.37 184.20Q969.23 184.20 969.83 184.70Q970.43 185.21 970.70 186.07L970.72 186.07Q970.89 185.21 971.48 184.70Q972.06 184.20 972.98 184.20Q974.25 184.20 975 185.15Q975.76 186.10 975.76 187.61L975.76 197.64L973.74 197.64L973.74 187.58Q973.74 186.79 973.36 186.32Q972.98 185.86 972.30 185.86Q971.66 185.86 971.27 186.31Q970.89 186.77 970.89 187.56L970.89 197.64L969.11 197.64L969.11 187.58Q969.11 186.79 968.73 186.32Q968.34 185.86 967.70 185.86Q967.02 185.86 966.64 186.31Q966.26 186.77 966.26 187.56" fill="white" fill-opacity="0.7"/>
<path d="M984.40 197.88Q982.07 197.88 980.64 196.48Q979.22 195.07 979.22 192.60L979.22 189.48Q979.22 187.01 980.64 185.60Q982.07 184.20 984.40 184.20Q985.96 184.20 987.12 184.82Q988.29 185.45 988.94 186.58Q989.58 187.70 989.58 189.24L989.58 191.59L981.33 191.59L981.33 192.84Q981.33 194.30 982.17 195.16Q983.01 196.01 984.40 196.01Q985.60 196.01 986.38 195.54Q987.16 195.07 987.33 194.28L989.49 194.28Q989.27 195.94 987.88 196.91Q986.49 197.88 984.40 197.88M981.33 189.24L981.33 189.91L987.47 189.91L987.47 189.24Q987.47 187.68 986.67 186.83Q985.86 185.98 984.40 185.98Q982.94 185.98 982.13 186.83Q981.33 187.68 981.33 189.24" fill="white" fill-opacity="0.7"/>
<path d="M1012.05 197.88Q1010.01 197.88 1008.81 196.74Q1007.61 195.60 1007.61 193.75Q1007.61 192.53 1008.16 191.62Q1008.71 190.70 1009.70 190.19Q1010.68 189.67 1011.95 189.67L1016.03 189.67L1016.03 188.64Q1016.03 186.07 1013.22 186.07Q1011.98 186.07 1011.21 186.53Q1010.44 186.98 1010.39 187.80L1008.23 187.80Q1008.35 186.24 1009.68 185.22Q1011.02 184.20 1013.22 184.20Q1015.62 184.20 1016.91 185.35Q1018.19 186.50 1018.19 188.57L1018.19 197.64L1016.06 197.64L1016.06 195.24L1016.01 195.24Q1015.82 196.46 1014.78 197.17Q1013.75 197.88 1012.05 197.88M1012.58 196.06Q1014.16 196.06 1015.10 195.29Q1016.03 194.52 1016.03 193.20L1016.03 191.35L1012.19 191.35Q1011.14 191.35 1010.48 191.99Q1009.82 192.62 1009.82 193.68Q1009.82 194.78 1010.55 195.42Q1011.28 196.06 1012.58 196.06" fill="white" fill-opacity="0.7"/>
<path d="M1024.77 197.64L1022.61 197.64L1022.61 184.44L1024.77 184.44L1024.77 186.96L1024.79 186.96Q1024.96 185.64 1025.87 184.92Q1026.78 184.20 1028.30 184.20Q1030.29 184.20 1031.46 185.42Q1032.64 186.65 1032.64 188.76L1032.64 197.64L1030.48 197.64L1030.48 189.14Q1030.48 187.63 1029.72 186.83Q1028.97 186.02 1027.67 186.02Q1026.33 186.02 1025.55 186.86Q1024.77 187.70 1024.77 189.24" fill="white" fill-opacity="0.7"/>
<path d="M1041.23 197.88Q1039.26 197.88 1038.08 196.56Q1036.89 195.24 1036.89 192.98L1036.89 189.12Q1036.89 186.84 1038.06 185.52Q1039.24 184.20 1041.23 184.20Q1042.72 184.20 1043.69 184.94Q1044.66 185.69 1044.86 186.96L1044.88 186.96L1044.83 183.96L1044.83 180.12L1046.99 180.12L1046.99 197.64L1044.83 197.64L1044.83 195.12L1044.81 195.12Q1044.64 196.42 1043.68 197.15Q1042.72 197.88 1041.23 197.88M1041.95 196.01Q1043.30 196.01 1044.06 195.17Q1044.83 194.33 1044.83 192.84L1044.83 189.24Q1044.83 187.75 1044.06 186.91Q1043.30 186.07 1041.95 186.07Q1040.58 186.07 1039.82 186.78Q1039.05 187.49 1039.05 189.12L1039.05 192.96Q1039.05 194.57 1039.82 195.29Q1040.58 196.01 1041.95 196.01" fill="white" fill-opacity="0.7"/>
<path d="M1070.99 197.88Q1068.59 197.88 1067.20 196.54Q1065.81 195.19 1065.81 192.84L1065.81 184.92Q1065.81 182.57 1067.20 181.22Q1068.59 179.88 1070.99 179.88Q1073.34 179.88 1074.74 181.24Q1076.13 182.59 1076.13 184.92L1073.97 184.92Q1073.97 183.43 1073.19 182.63Q1072.41 181.82 1070.99 181.82Q1069.58 181.82 1068.77 182.63Q1067.97 183.43 1067.97 184.92L1067.97 192.84Q1067.97 194.33 1068.77 195.13Q1069.58 195.94 1070.99 195.94Q1072.41 195.94 1073.19 195.13Q1073.97 194.33 1073.97 192.84L1076.13 192.84Q1076.13 195.17 1074.74 196.52Q1073.34 197.88 1070.99 197.88" fill="white" fill-opacity="0.7"/>
<path d="M1084.05 197.88Q1082.01 197.88 1080.81 196.74Q1079.61 195.60 1079.61 193.75Q1079.61 192.53 1080.16 191.62Q1080.71 190.70 1081.70 190.19Q1082.68 189.67 1083.95 189.67L1088.03 189.67L1088.03 188.64Q1088.03 186.07 1085.22 186.07Q1083.98 186.07 1083.21 186.53Q1082.44 186.98 1082.39 187.80L1080.23 187.80Q1080.35 186.24 1081.68 185.22Q1083.02 184.20 1085.22 184.20Q1087.62 184.20 1088.91 185.35Q1090.19 186.50 1090.19 188.57L1090.19 197.64L1088.06 197.64L1088.06 195.24L1088.01 195.24Q1087.82 196.46 1086.78 197.17Q1085.75 197.88 1084.05 197.88M1084.58 196.06Q1086.16 196.06 1087.10 195.29Q1088.03 194.52 1088.03 193.20L1088.03 191.35L1084.19 191.35Q1083.14 191.35 1082.48 191.99Q1081.82 192.62 1081.82 193.68Q1081.82 194.78 1082.55 195.42Q1083.28 196.06 1084.58 196.06" fill="white" fill-opacity="0.7"/>
<path d="M1100.13 197.83L1099.07 197.83Q1096.86 197.83 1095.65 196.84Q1094.44 195.84 1094.44 194.02L1096.60 194.02Q1096.60 194.93 1097.25 195.44Q1097.90 195.96 1099.07 195.96L1100.13 195.96Q1101.33 195.96 1101.99 195.43Q1102.65 194.90 1102.65 193.94Q1102.65 192.24 1101.09 192.02L1097.44 191.50Q1096.10 191.30 1095.35 190.38Q1094.61 189.46 1094.61 187.94Q1094.61 186.22 1095.80 185.23Q1096.98 184.25 1099.07 184.25L1100.13 184.25Q1102.05 184.25 1103.26 185.20Q1104.47 186.14 1104.57 187.68L1102.38 187.68Q1102.34 186.98 1101.72 186.53Q1101.11 186.07 1100.13 186.07L1099.07 186.07Q1097.97 186.07 1097.34 186.58Q1096.72 187.08 1096.72 187.94Q1096.72 189.34 1097.99 189.53L1101.40 190.01Q1104.76 190.49 1104.76 193.94Q1104.76 195.79 1103.55 196.81Q1102.34 197.83 1100.13 197.83" fill="white" fill-opacity="0.7"/>
<path d="M1119.16 197.64L1115.32 197.64Q1113.69 197.64 1112.70 196.69Q1111.72 195.74 1111.72 194.16L1111.72 186.41L1107.93 186.41L1107.93 184.44L1111.72 184.44L1111.72 180.72L1113.88 180.72L1113.88 184.44L1119.28 184.44L1119.28 186.41L1113.88 186.41L1113.88 194.16Q1113.88 194.83 1114.28 195.25Q1114.67 195.67 1115.32 195.67L1119.16 195.67" fill="white" fill-opacity="0.7"/>
<path d="M1128.40 197.88Q1126.07 197.88 1124.64 196.48Q1123.22 195.07 1123.22 192.60L1123.22 189.48Q1123.22 187.01 1124.64 185.60Q1126.07 184.20 1128.40 184.20Q1129.96 184.20 1131.12 184.82Q1132.29 185.45 1132.94 186.58Q1133.58 187.70 1133.58 189.24L1133.58 191.59L1125.33 191.59L1125.33 192.84Q1125.33 194.30 1126.17 195.16Q1127.01 196.01 1128.40 196.01Q1129.60 196.01 1130.38 195.54Q1131.16 195.07 1131.33 194.28L1133.49 194.28Q1133.27 195.94 1131.88 196.91Q1130.49 197.88 1128.40 197.88M1125.33 189.24L1125.33 189.91L1131.47 189.91L1131.47 189.24Q1131.47 187.68 1130.67 186.83Q1129.86 185.98 1128.40 185.98Q1126.94 185.98 1126.13 186.83Q1125.33 187.68 1125.33 189.24" fill="white" fill-opacity="0.7"/>
<path d="M77.39 229.88Q74.99 229.88 73.60 228.54Q72.21 227.19 72.21 224.84L72.21 216.92Q72.21 214.57 73.60 213.22Q74.99 211.88 77.39 211.88Q79.74 211.88 81.14 213.24Q82.53 214.59 82.53 216.92L80.37 216.92Q80.37 215.43 79.59 214.63Q78.81 213.82 77.39 213.82Q75.98 213.82 75.17 214.63Q74.37 215.43 74.37 216.92L74.37 224.84Q74.37 226.33 75.17 227.13Q75.98 227.94 77.39 227.94Q78.81 227.94 79.59 227.13Q80.37 226.33 80.37 224.84L82.53 224.84Q82.53 227.17 81.14 228.52Q79.74 229.88 77.39 229.88" fill="white" fill-opacity="0.7"/>
<path d="M91.60 229.88Q89.27 229.88 87.84 228.48Q86.42 227.07 86.42 224.60L86.42 221.48Q86.42 219.01 87.84 217.60Q89.27 216.20 91.60 216.20Q93.16 216.20 94.32 216.82Q95.49 217.45 96.14 218.58Q96.78 219.70 96.78 221.24L96.78 223.59L88.53 223.59L88.53 224.84Q88.53 226.30 89.37 227.16Q90.21 228.01 91.60 228.01Q92.80 228.01 93.58 227.54Q94.36 227.07 94.53 226.28L96.69 226.28Q96.47 227.94 95.08 228.91Q93.69 229.88 91.60 229.88M88.53 221.24L88.53 221.91L94.67 221.91L94.67 221.24Q94.67 219.68 93.87 218.83Q93.06 217.98 91.60 217.98Q90.14 217.98 89.33 218.83Q88.53 219.68 88.53 221.24" fill="white" fill-opacity="0.7"/>
<path d="M103.65 229.64L101.49 229.64L101.49 216.44L103.65 216.44L103.65 218.96L103.70 218.96Q103.86 217.69 104.78 216.94Q105.69 216.20 107.22 216.20Q109.29 216.20 110.40 217.44Q111.52 218.67 111.52 220.95L111.52 222.08L109.36 222.08L109.36 220.95Q109.36 218.07 106.55 218.07Q105.14 218.07 104.39 218.89Q103.65 219.70 103.65 221.24" fill="white" fill-opacity="0.7"/>
<path d="M125.56 229.64L121.72 229.64Q120.09 229.64 119.10 228.69Q118.12 227.74 118.12 226.16L118.12 218.41L114.33 218.41L114.33 216.44L118.12 216.44L118.12 212.72L120.28 212.72L120.28 216.44L125.68 216.44L125.68 218.41L120.28 218.41L120.28 226.16Q120.28 226.83 120.68 227.25Q121.07 227.67 121.72 227.67L125.56 227.67" fill="white" fill-opacity="0.7"/>
<path d="M140.92 229.64L129.64 229.64L129.64 227.67L134.32 227.67L134.32 218.41L130.12 218.41L130.12 216.44L136.48 216.44L136.48 227.67L140.92 227.67L140.92 229.64M135.16 214.06Q134.37 214.06 133.91 213.66Q133.46 213.25 133.46 212.55Q133.46 211.83 133.91 211.41Q134.37 210.99 135.16 210.99Q135.95 210.99 136.41 211.41Q136.86 211.83 136.86 212.55Q136.86 213.25 136.41 213.66Q135.95 214.06 135.16 214.06" fill="white" fill-opacity="0.7"/>
<path d="M149.32 229.64L147.16 229.64L147.16 220.21L143.32 220.21L143.32 218.24L147.16 218.24L147.16 215.48Q147.16 213.92 148.14 213.02Q149.13 212.12 150.86 212.12L154.72 212.12L154.72 214.09L150.86 214.09Q149.32 214.09 149.32 215.48L149.32 218.24L154.72 218.24L154.72 220.21L149.32 220.21" fill="white" fill-opacity="0.7"/>
<path d="M169.72 229.64L158.44 229.64L158.44 227.67L163.12 227.67L163.12 218.41L158.92 218.41L158.92 216.44L165.28 216.44L165.28 227.67L169.72 227.67L169.72 229.64M163.96 214.06Q163.17 214.06 162.71 213.66Q162.26 213.25 162.26 212.55Q162.26 211.83 162.71 211.41Q163.17 210.99 163.96 210.99Q164.75 210.99 165.21 211.41Q165.66 211.83 165.66 212.55Q165.66 213.25 165.21 213.66Q164.75 214.06 163.96 214.06" fill="white" fill-opacity="0.7"/>
<path d="M178.19 229.88Q175.79 229.88 174.35 228.54Q172.91 227.19 172.91 224.84L172.91 221.24Q172.91 218.89 174.35 217.54Q175.79 216.20 178.19 216.20Q180.47 216.20 181.88 217.42Q183.28 218.65 183.35 220.76L181.19 220.76Q181.12 219.49 180.33 218.80Q179.54 218.12 178.19 218.12Q176.78 218.12 175.92 218.92Q175.07 219.73 175.07 221.22L175.07 224.84Q175.07 226.33 175.92 227.14Q176.78 227.96 178.19 227.96Q179.54 227.96 180.33 227.26Q181.12 226.57 181.19 225.32L183.35 225.32Q183.28 227.43 181.88 228.66Q180.47 229.88 178.19 229.88" fill="white" fill-opacity="0.7"/>
<path d="M191.25 229.88Q189.21 229.88 188.01 228.74Q186.81 227.60 186.81 225.75Q186.81 224.53 187.36 223.62Q187.91 222.70 188.90 222.19Q189.88 221.67 191.15 221.67L195.23 221.67L195.23 220.64Q195.23 218.07 192.42 218.07Q191.18 218.07 190.41 218.53Q189.64 218.98 189.59 219.80L187.43 219.80Q187.55 218.24 188.88 217.22Q190.22 216.20 192.42 216.20Q194.82 216.20 196.11 217.35Q197.39 218.50 197.39 220.57L197.39 229.64L195.26 229.64L195.26 227.24L195.21 227.24Q195.02 228.46 193.98 229.17Q192.95 229.88 191.25 229.88M191.78 228.06Q193.36 228.06 194.30 227.29Q195.23 226.52 195.23 225.20L195.23 223.35L191.39 223.35Q190.34 223.35 189.68 223.99Q189.02 224.62 189.02 225.68Q189.02 226.78 189.75 227.42Q190.48 228.06 191.78 228.06" fill="white" fill-opacity="0.7"/>
<path d="M211.96 229.64L208.12 229.64Q206.49 229.64 205.50 228.69Q204.52 227.74 204.52 226.16L204.52 218.41L200.73 218.41L200.73 216.44L204.52 216.44L204.52 212.72L206.68 212.72L206.68 216.44L212.08 216.44L212.08 218.41L206.68 218.41L206.68 226.16Q206.68 226.83 207.08 227.25Q207.47 227.67 208.12 227.67L211.96 227.67" fill="white" fill-opacity="0.7"/>
<path d="M221.20 229.88Q218.87 229.88 217.44 228.48Q216.02 227.07 216.02 224.60L216.02 221.48Q216.02 219.01 217.44 217.60Q218.87 216.20 221.20 216.20Q222.76 216.20 223.92 216.82Q225.09 217.45 225.74 218.58Q226.38 219.70 226.38 221.24L226.38 223.59L218.13 223.59L218.13 224.84Q218.13 226.30 218.97 227.16Q219.81 228.01 221.20 228.01Q222.40 228.01 223.18 227.54Q223.96 227.07 224.13 226.28L226.29 226.28Q226.07 227.94 224.68 228.91Q223.29 229.88 221.20 229.88M218.13 221.24L218.13 221.91L224.27 221.91L224.27 221.24Q224.27 219.68 223.47 218.83Q222.66 217.98 221.20 217.98Q219.74 217.98 218.93 218.83Q218.13 219.68 218.13 221.24" fill="white" fill-opacity="0.7"/>
<path d="M236.13 229.83L235.07 229.83Q232.86 229.83 231.65 228.84Q230.44 227.84 230.44 226.02L232.60 226.02Q232.60 226.93 233.25 227.44Q233.90 227.96 235.07 227.96L236.13 227.96Q237.33 227.96 237.99 227.43Q238.65 226.90 238.65 225.94Q238.65 224.24 237.09 224.02L233.44 223.50Q232.10 223.30 231.35 222.38Q230.61 221.46 230.61 219.94Q230.61 218.22 231.80 217.23Q232.98 216.25 235.07 216.25L236.13 216.25Q238.05 216.25 239.26 217.20Q240.47 218.14 240.57 219.68L238.38 219.68Q238.34 218.98 237.72 218.53Q237.11 218.07 236.13 218.07L235.07 218.07Q233.97 218.07 233.34 218.58Q232.72 219.08 232.72 219.94Q232.72 221.34 233.99 221.53L237.40 222.01Q240.76 222.49 240.76 225.94Q240.76 227.79 239.55 228.81Q238.34 229.83 236.13 229.83" fill="white" fill-opacity="0.7"/>
<path d="MNaN 229.88Q249.11 229.88 248.57 229.35Q248.03 228.82 248.03 227.98Q248.03 227.10 248.57 226.54Q249.11 225.99 NaN 225.99Q250.89 225.99 251.43 226.54Q251.97 227.10 251.97 227.98Q251.97 228.82 251.43 229.35Q250.89 229.88 NaN 229.88" fill="white" fill-opacity="0.7"/>
<path d="M76.11 136.06L66.42 136.06L84.56 65.98L97.14 65.98L115.18 136.06L105.49 136.06L101.07 117.82L80.53 117.82L76.11 136.06M87.54 88.92L82.45 109.95L99.15 109.95L94.16 89.02Q92.72 83.26 91.86 79.23Q90.99 75.20 90.80 73.76Q90.61 75.20 89.74 79.23Q88.88 83.26 87.54 88.92M137.55 136.06L128.05 136.06L128.05 65.98L150.80 65.98Q157.52 65.98 162.42 68.57Q167.31 71.16 170 75.82Q172.69 80.48 172.69 86.91Q172.69 93.24 170 97.90Q167.31 102.56 162.37 105.15Q157.42 107.74 150.80 107.74L137.55 107.74L137.55 136.06M137.55 74.43L137.55 99.29L150.80 99.29Q156.37 99.29 159.63 95.88Q162.90 92.48 162.90 86.91Q162.90 81.24 159.63 77.84Q156.37 74.43 150.80 74.43L137.55 74.43M225.10 136.06L186.90 136.06L186.90 127.42L201.20 127.42L201.20 74.62L186.90 74.62L186.90 65.98L225.10 65.98L225.10 74.62L210.80 74.62L210.80 127.42L225.10 127.42L225.10 136.06M263.98 137.02Q253.62 137.02 247.47 131.60Q241.33 126.17 241.33 116.67L250.83 116.67Q250.83 122.24 254.38 125.40Q257.94 128.57 263.98 128.57Q269.74 128.57 273.15 125.36Q276.56 122.14 276.56 116.76Q276.56 112.73 274.35 109.71Q272.14 106.68 268.11 105.63L257.74 102.84Q250.93 100.92 246.94 95.88Q242.96 90.84 242.96 83.93Q242.96 78.27 245.50 74Q248.05 69.72 252.66 67.37Q257.26 65.02 263.31 65.02Q269.46 65.02 274.11 67.37Q278.77 69.72 281.36 73.95Q283.95 78.17 283.95 83.74L274.54 83.74Q274.54 79.13 271.42 76.25Q268.30 73.37 263.31 73.37Q258.32 73.37 255.30 76.25Q252.27 79.13 252.27 83.74Q252.27 87.48 254.29 90.03Q256.30 92.57 259.95 93.63L270.61 96.51Q277.81 98.43 281.84 103.85Q285.87 109.28 285.87 116.76Q285.87 122.91 283.18 127.47Q280.50 132.03 275.55 134.52Q270.61 137.02 263.98 137.02M342.51 136.06L301.71 136.06L301.71 65.98L342.51 65.98L342.51 74.52L311.12 74.52L311.12 95.36L339.15 95.36L339.15 103.61L311.12 103.61L311.12 127.52L342.51 127.52L342.51 136.06M383.60 136.06L374.10 136.06L374.10 74.62L355.09 74.62L355.09 65.98L402.51 65.98L402.51 74.62L383.60 74.62L383.60 136.06M436.40 137.02Q426.51 137.02 421.18 131.55Q415.86 126.08 415.86 116.67L415.86 65.98L425.36 65.98L425.36 116.67Q425.36 122.24 428.10 125.40Q430.83 128.57 436.40 128.57Q441.87 128.57 444.70 125.40Q447.54 122.24 447.54 116.67L447.54 65.98L457.04 65.98L457.04 116.67Q457.04 126.17 451.71 131.60Q446.38 137.02 436.40 137.02M551.98 137.02Q542.29 137.02 536.58 131.60Q530.86 126.17 530.86 116.67L530.86 85.28Q530.86 75.87 536.58 70.44Q542.29 65.02 551.98 65.02Q561.58 65.02 567.30 70.49Q573.01 75.96 573.01 85.28L563.50 85.28Q563.50 79.61 560.43 76.54Q557.36 73.47 551.98 73.47Q546.51 73.47 543.44 76.54Q540.37 79.61 540.37 85.28L540.37 116.67Q540.37 122.43 543.44 125.50Q546.51 128.57 551.98 128.57Q557.36 128.57 560.43 125.50Q563.50 122.43 563.50 116.67L563.50 107.55L549.87 107.55L549.87 99.10L573.01 99.10L573.01 116.67Q573.01 126.08 567.30 131.55Q561.58 137.02 551.98 137.02M609.20 137.02Q599.60 137.02 594.03 131.45Q588.46 125.88 588.46 115.71L588.46 86.24Q588.46 76.16 594.03 70.59Q599.60 65.02 609.20 65.02Q618.80 65.02 624.37 70.54Q629.94 76.06 629.94 86.24L629.94 115.71Q629.94 125.88 624.37 131.45Q618.80 137.02 609.20 137.02M609.20 128.57Q614.58 128.57 617.50 125.50Q620.43 122.43 620.43 116.67L620.43 85.28Q620.43 79.61 617.55 76.54Q614.67 73.47 609.20 73.47Q603.73 73.47 600.85 76.54Q597.97 79.61 597.97 85.28L597.97 116.67Q597.97 122.43 600.90 125.50Q603.82 128.57 609.20 128.57M673.14 136.06L660.37 136.06L642.42 65.98L652.21 65.98L663.82 113.21Q664.98 117.72 665.79 121.90Q666.61 126.08 666.99 128.28Q667.28 126.08 668.19 121.85Q669.10 117.63 670.16 113.12L681.39 65.98L691.18 65.98L673.14 136.06M780.46 136.06L761.65 136.06L761.65 65.98L780.46 65.98Q787.28 65.98 792.32 68.62Q797.36 71.26 800.14 76.01Q802.93 80.76 802.93 87.20L802.93 114.75Q802.93 121.18 800.14 125.98Q797.36 130.78 792.32 133.42Q787.28 136.06 780.46 136.06M771.15 74.43L771.15 127.61L780.46 127.61Q786.51 127.61 789.97 124.16Q793.42 120.70 793.42 114.75L793.42 87.20Q793.42 81.24 789.97 77.84Q786.51 74.43 780.46 74.43L771.15 74.43M858.70 136.06L820.50 136.06L820.50 127.42L834.80 127.42L834.80 74.62L820.50 74.62L820.50 65.98L858.70 65.98L858.70 74.62L844.40 74.62L844.40 127.42L858.70 127.42L858.70 136.06MNaN 136.06L892.50 136.06L892.50 74.62L873.49 74.62L873.49 65.98L920.91 65.98L920.91 74.62LNaN 74.62LNaN 136.06M959.60 136.06L950.10 136.06L950.10 74.62L931.09 74.62L931.09 65.98L978.51 65.98L978.51 74.62L959.60 74.62L959.60 136.06M1001.55 136.06L992.14 136.06L992.14 65.98L1013.84 65.98Q1020.27 65.98 1025.07 68.52Q1029.87 71.07 1032.56 75.63Q1035.25 80.19 1035.25 86.33Q1035.25 93.44 1031.65 98.52Q1028.05 103.61 1022.10 105.72L1036.21 136.06L1025.74 136.06L1012.40 106.78L1001.55 106.78L1001.55 136.06M1001.55 74.43L1001.55 98.33L1013.84 98.33Q1019.22 98.33 1022.34 95.07Q1025.46 91.80 1025.46 86.43Q1025.46 80.96 1022.29 77.69Q1019.12 74.43 1013.84 74.43L1001.55 74.43M1089.10 136.06L1050.90 136.06L1050.90 127.42L1065.20 127.42L1065.20 74.62L1050.90 74.62L1050.90 65.98L1089.10 65.98L1089.10 74.62L1074.80 74.62L1074.80 127.42L1089.10 127.42L1089.10 136.06M1116.75 136.06L1107.25 136.06L1107.25 65.98LNaN 65.98Q1136.72 65.98 1141.62 68.57Q1146.51 71.16 1149.20 75.82Q1151.89 80.48 1151.89 86.91Q1151.89 93.24 1149.20 97.90Q1146.51 102.56 1141.57 105.15Q1136.62 107.74 NaN 107.74L1116.75 107.74L1116.75 136.06M1116.75 74.43L1116.75 99.29LNaN 99.29Q1135.57 99.29 1138.83 95.88Q1142.10 92.48 1142.10 86.91Q1142.10 81.24 1138.83 77.84Q1135.57 74.43 NaN 74.43L1116.75 74.43M1185.20 137.02Q1175.31 137.02 1169.98 131.55Q1164.66 126.08 1164.66 116.67L1164.66 65.98L1174.16 65.98L1174.16 116.67Q1174.16 122.24 1176.90 125.40Q1179.63 128.57 1185.20 128.57Q1190.67 128.57 1193.50 125.40Q1196.34 122.24 1196.34 116.67L1196.34 65.98L1205.84 65.98L1205.84 116.67Q1205.84 126.17 1200.51 131.60Q1195.18 137.02 1185.20 137.02M1231.95 136.06L1222.54 136.06L1222.54 65.98L1244.24 65.98Q1250.67 65.98 1255.47 68.52Q1260.27 71.07 1262.96 75.63Q1265.65 80.19 1265.65 86.33Q1265.65 93.44 1262.05 98.52Q1258.45 103.61 1252.50 105.72L1266.61 136.06L1256.14 136.06L1242.80 106.78L1231.95 106.78L1231.95 136.06M1231.95 74.43L1231.95 98.33L1244.24 98.33Q1249.62 98.33 1252.74 95.07Q1255.86 91.80 1255.86 86.43Q1255.86 80.96 1252.69 77.69Q1249.52 74.43 1244.24 74.43L1231.95 74.43M1285.71 136.06L1276.02 136.06L1294.16 65.98L1306.74 65.98L1324.78 136.06L1315.09 136.06L1310.67 117.82L1290.13 117.82L1285.71 136.06M1297.14 88.92L1292.05 109.95L1308.75 109.95L1303.76 89.02Q1302.32 83.26 1301.46 79.23Q1300.59 75.20 1300.40 73.76Q1300.21 75.20 1299.34 79.23Q1298.48 83.26 1297.14 88.92" fill="url(#paint2_linear_0_1)"/>
<g id="Group 1">
<rect id="Rectangle 1" x="26" y="168" width="12" height="184" rx="5" fill="url(#paint3_linear_0_1)" fill-opacity="0.9"/>
</g>
<g id="Group 1_2">
<rect id="Rectangle 2" x="26" y="38" width="12" height="119" rx="5" fill="url(#paint4_linear_0_1)" fill-opacity="0.9"/>
</g>
<ellipse id="Ellipse 1" cx="148.5" cy="573" rx="215.5" ry="214" fill="url(#paint5_linear_0_1)" fill-opacity="0.4"/>
<rect id="Rectangle 3" x="1229" y="48" width="300" height="300" rx="25" fill="#FFFBFB" fill-opacity="0.9"/>
<g id="placeholder-logo"><g transform="translate(1229,48) translate(0.0,60.0) scale(1.2000)"><g fill="#666666">
  <path d="m88.05,27.65c-3.15,4 -3.2,51.2 -0.05,54.35c2.75,2.75 71.7,3.15 74.45,0.45c2.85,-2.9 2.3,-53.85 -0.65,-55.9c-1.95,-1.35 -7.15,-1.55 -36.95,-1.55l-34.7,0l-2.1,2.65zm69.45,3.35c0.65,0 1,8.6 1,23.75l0,23.75l-33,0l-33,0l-0.25,-23c-0.15,-12.6 -0.1,-23.45 0.15,-24.1c0.35,-0.85 8.9,-1.05 32.25,-0.75c17.55,0.2 32.3,0.35 32.85,0.35z"/>
  <path d="m99.15,37.3c-6.85,7.35 4.25,17.35 11.4,10.25c1.35,-1.35 2.45,-3.65 2.45,-5.05c0,-6.45 -9.35,-9.95 -13.85,-5.2z"/>
  <path d="m135,42.5c-0.7,0.85 -5.25,5.15 -10.1,9.6l-8.85,8.1l-3.2,-3.2l-3.15,-3.15l-6.35,6.3c-5.55,5.5 -6.35,6.75 -6.35,10.05l0,3.8l28.5,0l28.5,0l0,-8.6l0,-8.55l-8.15,-7.7c-9.35,-8.85 -9.15,-8.7 -10.85,-6.65zm7.25,15.2c0.95,0.9 1.75,2.9 1.75,4.45c6.35,-5.05 4.75,-7.15 4.9,-11.55c0.95,0 0,0 0,0l-6.65,7.1z"/>
  <path d="m53.65,110.75c0.1,4.8 0.45,8.65 0.75,8.5c0.35,-0.15 1.3,-0.25 2.1,-0.25c1.1,0 1.5,-1.2 1.5,-4.75l0,-4.75l3.25,5c4.9,7.5 6.2,6.75 6.55,-3.75c0.25,-8.15 0.15,-8.75 -1.7,-8.75c-1.65,0 -2.05,0.8 -2.3,4.75l-0.3,4.75l-2.8,-4.75c-4.85,-8.25 -7.25,-6.9 -7.05,4z"/>
  <path d="m91,108.9c0,9.65 0.3,10.1 6.1,10.1c5.8,0 7.15,-2.65 1.65,-3.2l-3.25,-0.3l-0.3,-6.75c-0.25,-5.95 -0.55,-6.75 -2.25,-6.75c-1.75,0 -1.95,0.7 -1.95,6.9z"/>
  <path d="m151,102.45c0,0.25 1,2.15 2.25,4.2c1.2,2.1 2.45,5.8 2.75,8.25c0.65,5.9 4,6.95 4,1.25c0.05,-2.1 1.25,-5.85 2.95,-8.9l2.9,-5.25l-2.5,0c-1.8,0 -2.8,0.85 -3.75,3.1l-1.3,3.05l-1.25,-3.05c-1.1,-2.6 -6.05,-4.8 -6.05,-2.65z"/>
  <path d="m191,107.45c0,9.05 3.4,8.85 4.25,-0.2c0.45,-5 0.35,-5.25 -1.9,-5.25c-2.2,0 -2.35,0.4 -2.35,5.45z"/>
  <path d="m180.8,104.75c-1.3,5.35 0.65,13.6 3.45,14.35c2.3,0.6 2.75,0.4 2.75,-1.2c0,-1.05 -0.45,-1.9 -1,-1.9c-0.55,0 -1,-1.6 -1,-3.5c0,-1.95 0.45,-3.5 1,-3.5c0.55,0 1,-0.7 1,-1.5c0,-0.85 -0.45,-1.5 -1,-1.5c-0.55,0 -1,-0.7 -1,-1.5c0,-2.1 -3.65,-1.9 -4.2,0.25z"/>
  <path d="m71.55,106.55c-2.2,2.25 -2.05,9.7 0.3,11.8c4.5,4.1 10.15,0.75 10.15,-6.1c0,-4.85 -2,-7.25 -6,-7.25c-1.55,0 -3.55,0.7 -4.45,1.55zm6.25,5.8c0.25,3.05 0,3.65 -1.6,3.65c-2.3,0 -3.25,-2.65 -2.05,-5.85c1.25,-3.35 3.3,-2.1 3.65,2.2z"/>
  <path d="m105.75,106.1c-2.5,1.45 -2.45,9.95 0.1,12.25c4.3,3.9 10.15,0.35 10.15,-6.2c0,-6 -5.15,-9.05 -10.25,-6.05zm6.05,6.25c0.25,3.05 0,3.65 -1.6,3.65c-2.3,0 -3.25,-2.65 -2.05,-5.85c1.25,-3.35 3.3,-2.1 3.65,2.2z"/>
  <path d="m119.2,106.2c-3.8,3.8 -0.4,12.55 4.4,11.35c1.9,-0.45 2.45,-0.3 2.15,0.65c-0.25,0.7 -1.55,1.2 -2.85,1.1c-4.05,-0.3 -5.35,0.45 -3.85,2.25c0.85,1.05 2.6,1.45 5.35,1.25l4.1,-0.3l0.3,-8.75l0.3,-8.75l-4.35,0c-2.4,0 -4.9,0.55 -5.55,1.2zm6.6,4.45c0.4,2.85 -2.15,4.85 -3.75,2.95c-0.9,-1.1 -0.9,-2 -0.05,-3.6c1.35,-2.5 3.4,-2.15 3.8,0.65z"/>
  <path d="m133.55,106.55c-2.2,2.25 -2.05,9.7 0.3,11.8c4.5,4.1 10.15,0.75 10.15,-6.1c0,-4.85 -2,-7.25 -6,-7.25c-1.55,0 -3.55,0.7 -4.45,1.55zm6.25,5.8c0.25,3.05 0,3.65 -1.6,3.65c-2.3,0 -3.25,-2.65 -2.05,-5.85c1.25,-3.35 3.3,-2.1 3.65,2.2z"/>
  <path d="m167.65,106.85c-3.9,4.3 -0.75,13.15 4.7,13.15c2.4,0 5.65,-2.75 5.65,-4.85c0,-1.4 -2.65,-1.55 -3.5,-0.15c-0.95,1.55 -4.5,1.15 -4.5,-0.5c0,-1.1 1.1,-1.5 4,-1.5c3.15,0 4,-0.35 4,-1.8c0,-5.3 -6.85,-8.25 -10.35,-4.35z"/>
  <path d="m191,117.5c0,2.15 0.4,2.6 2.25,2.3c1.5,-0.2 2.25,-1 2.25,-2.3c0,-1.3 -0.75,-2.1 -2.25,-2.3c-1.85,-0.3 -2.25,0.15 -2.25,2.3z"/>
 </g></g></g>
</g>
<defs>
<linearGradient id="paint0_linear_0_1" x1="0" y1="198" x2="1584" y2="198" gradientUnits="userSpaceOnUse">
<stop stop-color="#3D052C"/>
<stop offset="1"/>
</linearGradient>
<linearGradient id="paint1_linear_0_1" x1="323" y1="-224" x2="323" y2="352" gradientUnits="userSpaceOnUse">
<stop stop-color="#28F6F2" stop-opacity="0.4"/>
<stop offset="1" stop-color="#17908E" stop-opacity="0.7"/>
</linearGradient>
<linearGradient id="paint2_linear_0_1" x1="148.5" y1="38" x2="148.5" y2="140" gradientUnits="userSpaceOnUse">
<stop stop-color="white"/>
<stop offset="1" stop-color="#999999"/>
</linearGradient>
<linearGradient id="paint3_linear_0_1" x1="38" y1="260" x2="26" y2="260" gradientUnits="userSpaceOnUse">
<stop stop-color="#D9D9D9"/>
<stop offset="1" stop-color="#737373"/>
</linearGradient>
<linearGradient id="paint4_linear_0_1" x1="38" y1="97.5" x2="26" y2="97.5" gradientUnits="userSpaceOnUse">
<stop stop-color="#D9D9D9"/>
<stop offset="1" stop-color="#737373"/>
</linearGradient>
<linearGradient id="paint5_linear_0_1" x1="27.5" y1="434.5" x2="148.5" y2="787" gradientUnits="userSpaceOnUse">
<stop stop-color="#2E21BC"/>
<stop offset="1" stop-color="#150F56"/>
</linearGradient>
<clipPath id="clip0_0_1">
<rect width="1584" height="396" fill="white"/>
</clipPath>
</defs>
</svg>
